<?xml version="1.0" standalone="no"?><!DOCTYPE svg PUBLIC "-//W3C//DTD SVG 1.1//EN" "http://www.w3.org/Graphics/SVG/1.1/DTD/svg11.dtd"><svg width="200" height="200" viewBox="0 0 200 200" version="1.1" xmlns="http://www.w3.org/2000/svg" xmlns:xlink="http://www.w3.org/1999/xlink"><defs><style type="text/css"><![CDATA[
@font-face { font-family: ifont; src: url(http://at.alicdn.com/t/font_1442373896_4754455.eot?#iefix) format(embedded-opentype), url(http://at.alicdn.com/t/font_1442373896_4754455.woff) format(woff), url(http://at.alicdn.com/t/font_1442373896_4754455.ttf) format(truetype), url(http://at.alicdn.com/t/font_1442373896_4754455.svg#ifont) format(svg); }

]]></style></defs><g class="transform-group"><g transform="scale(0.1953125, 0.1953125)"><path d="M924.930145 90.136903c-16.257266-16.935718-39.317471-25.267477-63.927985-22.870894L644.511501 88.771813c-37.431517 3.75758-87.445608 27.500331-113.855094 53.962006L102.656543 570.652841c-33.075303 33.050744-33.075303 86.900186 0 119.957069l241.704924 241.753019c15.97995 16.009625 37.295418 24.77629 59.999512 24.77629 22.680559 0 43.996027-8.766664 59.98007-24.77629l421.709601-421.713694c26.929326-27.004027 49.14121-77.914534 50.554396-115.813702l9.473769-247.417019C946.957835 125.580137 939.443697 105.219413 924.930145 90.136903zM880.905466 392.709103c-0.926092 24.449855-16.959254 61.150732-34.298154 78.518285l-421.690158 421.714717c-10.915607 10.886955-30.272467 10.886955-41.135886 0L142.081461 651.183969c-11.325953-11.32493-11.325953-29.78128 0-41.10621l428.025447-427.924139c17.616216-17.695011 55.024198-35.388998 79.961146-37.894052l219.267912-21.618367c6.208399 0 11.539824 2.125407 15.379269 6.096858 3.977591 4.137227 5.936199 9.858532 5.662977 16.500812L880.905466 392.709103zM655.784242 257.135358c-33.43039 33.43039-33.43039 87.772043 0.028653 121.256668 16.223496 16.169261 37.757952 25.049512 60.628846 25.049512 22.923082 0 44.429909-8.93244 60.57461-25.102724 16.198937-16.174378 25.127284-37.733393 25.127284-60.604286s-8.928347-44.429909-25.073048-60.545958C744.726947 224.62492 688.293657 224.62492 655.784242 257.135358zM737.567897 338.91799c-11.272741 11.32493-31.0379 11.32493-42.36283 0-11.676947-11.710716-11.676947-30.658254 0-42.363853 5.692652-5.661953 13.235442-8.819876 21.237697-8.819876 7.977695 0 15.462157 3.103688 21.154809 8.819876 5.687536 5.662977 8.791224 13.178137 8.791224 21.179368C746.387773 325.740876 743.283062 333.255013 737.567897 338.91799z" fill="#ffffff"></path></g></g></svg>