<?xml version="1.0" standalone="no"?><!DOCTYPE svg PUBLIC "-//W3C//DTD SVG 1.1//EN" "http://www.w3.org/Graphics/SVG/1.1/DTD/svg11.dtd"><svg width="32" height="32" viewBox="0 0 32 32" version="1.1" xmlns="http://www.w3.org/2000/svg" xmlns:xlink="http://www.w3.org/1999/xlink"><defs><style type="text/css"><![CDATA[
@font-face { font-family: ifont; src: url(http://at.alicdn.com/t/font_1442373896_4754455.eot?#iefix) format(embedded-opentype), url(http://at.alicdn.com/t/font_1442373896_4754455.woff) format(woff), url(http://at.alicdn.com/t/font_1442373896_4754455.ttf) format(truetype), url(http://at.alicdn.com/t/font_1442373896_4754455.svg#ifont) format(svg); }

]]></style></defs><g class="transform-group"><g transform="scale(0.03125, 0.03125)"><path d="M509.801966 1024c-62.722009 0-123.632628-12.263883-180.928523-36.571141-55.380796-23.368839-105.043481-56.859913-147.724412-99.545878-42.680931-42.680931-76.177039-92.415105-99.618374-147.756632-24.234762-57.295895-36.531872-118.174294-36.531872-180.928523 0-75.096649 18.411935-149.639511 53.20592-215.688274 33.6411-63.809447 82.508344-119.835657 141.360886-162.015158 16.347817-11.716137 39.066207-7.919166 50.750123 8.395423 11.678882 16.309555 7.9534 38.988676-8.394416 50.639365-49.735181 35.737438-91.007477 82.976547-119.366448 136.833923-29.764585 56.462193-44.849765 117.627554-44.849765 181.834721 0 104.751484 40.799059 203.243151 114.87976 277.289618 74.041432 74.074659 172.500879 114.87976 277.218129 114.87976 104.678988 0 203.171662-40.804094 277.251356-114.87976 74.079694-74.046466 114.845525-172.539141 114.845525-277.289618 0-64.134671-15.051953-125.409783-44.855807-181.834721-28.358971-53.823142-69.665501-101.096484-119.399675-136.761427-16.315596-11.652703-20.113574-34.329811-8.395423-50.640372 11.723185-16.315596 34.402306-20.150829 50.717903-8.395423 58.885769 42.179501 107.824503 98.204705 141.427341 162.014151 34.832247 66.04977 53.244182 140.598673 53.244182 215.690288 0 62.754229-12.29711 123.632628-36.571141 180.966785-23.40106 55.342534-56.930395 105.076708-99.612333 147.756632-42.680931 42.680931-92.34865 76.138777-147.723405 99.618374C633.396332 1011.769344 572.523975 1024 509.801966 1024L509.801966 1024 509.801966 1024zM520.723669 519.623141c-20.073298 0-36.349626-16.204839-36.349626-36.317405L484.374043 52.79511c0-20.035037 16.275321-36.350633 36.349626-36.350633 20.073298 0 36.388894 16.315596 36.388894 36.350633l0 430.510625C557.112563 503.418303 540.796967 519.623141 520.723669 519.623141L520.723669 519.623141 520.723669 519.623141zM520.723669 519.623141" fill="#ffffff"></path></g></g></svg>