<?xml version="1.0" standalone="no"?><!DOCTYPE svg PUBLIC "-//W3C//DTD SVG 1.1//EN" "http://www.w3.org/Graphics/SVG/1.1/DTD/svg11.dtd"><svg width="36.5" height="32" viewBox="0 0 36.5 32" version="1.1" xmlns="http://www.w3.org/2000/svg" xmlns:xlink="http://www.w3.org/1999/xlink"><defs><style type="text/css"><![CDATA[
@font-face { font-family: ifont; src: url(http://at.alicdn.com/t/font_1442373896_4754455.eot?#iefix) format(embedded-opentype), url(http://at.alicdn.com/t/font_1442373896_4754455.woff) format(woff), url(http://at.alicdn.com/t/font_1442373896_4754455.ttf) format(truetype), url(http://at.alicdn.com/t/font_1442373896_4754455.svg#ifont) format(svg); }

]]></style></defs><g class="transform-group"><g transform="scale(0.03125, 0.03125)"><path d="M876.67934 414.476111c-53.862699 0-97.523889 43.667861-97.523889 97.523889 0 53.861031 43.667861 97.522221 97.523889 97.522221 53.862699 0 97.523889-43.66119 97.523889-97.522221C974.201561 458.137301 930.542039 414.476111 876.67934 414.476111L876.67934 414.476111zM876.67934 560.839494c-26.970541 0-48.839494-21.870621-48.839494-48.839494 0-26.970541 21.868953-48.841162 48.839494-48.841162 26.977212 0 48.839494 21.870621 48.839494 48.841162C925.518834 538.968873 903.656552 560.839494 876.67934 560.839494L876.67934 560.839494zM291.534338 414.476111c-53.856028 0-97.517218 43.667861-97.517218 97.523889 0 53.861031 43.66119 97.522221 97.517218 97.522221 53.867702 0 97.528892-43.66119 97.528892-97.522221C389.06323 458.137301 345.395369 414.476111 291.534338 414.476111L291.534338 414.476111zM291.534338 560.839494c-26.96387 0-48.834491-21.870621-48.834491-48.839494 0-26.970541 21.870621-48.841162 48.834491-48.841162 26.975544 0 48.846165 21.870621 48.846165 48.841162C340.380503 538.968873 318.509883 560.839494 291.534338 560.839494L291.534338 560.839494zM584.109341 0C274.406744 0 23.34823 219.266563 23.34823 489.73913 23.34823 588.186942 58.123751 678.7664 113.855976 756.627744c36.930229 51.596253-45.649125 267.372256-45.649125 267.372256s281.039309-83.009629 336.459668-66.780941c56.030749 16.408802 117.08637 22.259202 179.442822 22.259202 309.702597 0 560.761111-219.259892 560.761111-489.73913C1144.870451 219.266563 893.811937 0 584.109341 0L584.109341 0zM584.109341 929.121132c-54.806634 0-106.34952-8.295293-155.854438-22.005707-46.788185-12.951597-283.005563 43.737906-283.005563 43.737906s59.484619-176.607679 38.09764-197.741163c-67.498065-66.689216-111.114227-164.883532-111.114227-264.010111 0-243.013381 229.176219-440.014071 511.876588-440.014071 282.70704 0 511.876588 197.007361 511.876588 440.020742S866.809709 929.121132 584.109341 929.121132L584.109341 929.121132zM584.109341 414.476111c-53.856028 0-97.522221 43.667861-97.522221 97.523889 0 53.861031 43.666193 97.522221 97.522221 97.522221 53.862699 0 97.523889-43.66119 97.523889-97.522221C681.63323 458.137301 637.972039 414.476111 584.109341 414.476111L584.109341 414.476111zM584.109341 560.839494c-26.977212 0-48.832823-21.870621-48.832823-48.839494 0-26.970541 21.855611-48.841162 48.832823-48.841162 26.970541 0 48.839494 21.870621 48.839494 48.841162C632.948835 538.968873 611.079882 560.839494 584.109341 560.839494L584.109341 560.839494zM584.109341 560.839494" fill="#ffffff"></path></g></g></svg>