<?xml version="1.0" standalone="no"?><!DOCTYPE svg PUBLIC "-//W3C//DTD SVG 1.1//EN" "http://www.w3.org/Graphics/SVG/1.1/DTD/svg11.dtd"><svg width="200" height="200" viewBox="0 0 200 200" version="1.1" xmlns="http://www.w3.org/2000/svg" xmlns:xlink="http://www.w3.org/1999/xlink"><defs><style type="text/css"><![CDATA[
@font-face { font-family: ifont; src: url(http://at.alicdn.com/t/font_1442373896_4754455.eot?#iefix) format(embedded-opentype), url(http://at.alicdn.com/t/font_1442373896_4754455.woff) format(woff), url(http://at.alicdn.com/t/font_1442373896_4754455.ttf) format(truetype), url(http://at.alicdn.com/t/font_1442373896_4754455.svg#ifont) format(svg); }

]]></style></defs><g class="transform-group"><g transform="scale(0.1953125, 0.1953125)"><path d="M127.498 527.999c0-105.558 44.455-200.725 115.652-267.83C265.814 296.115 305.864 320 351.498 320c70.693 0 128-57.307 128-128s-57.307-128-128-128-128 57.307-128 128c0 0.128 0.005 0.255 0.005 0.384-97.61 79.205-160.005 200.118-160.005 335.615 0 18.396 1.154 36.522 3.385 54.313 0.054-0.016 0.11-0.029 0.164-0.045 0.917 16.852 14.869 30.234 31.949 30.234 17.674 0 32.002-14.326 32.002-32 0-2.059-0.202-4.07-0.573-6.02C128.506 559.256 127.498 543.746 127.498 527.999zM925.785 489.441c-14.148-159.934-115.44-294.829-256.098-356.879-5.595-4.222-12.557-6.728-20.106-6.728-18.456 0-33.417 14.964-33.417 33.418 0 17.909 14.092 32.529 31.795 33.376-0.032 0.101-0.062 0.202-0.094 0.303 104.4 47.551 182.668 142.462 207.379 257.277-7.696-1.444-15.631-2.208-23.746-2.208-70.693 0-128 57.307-128 128s57.307 128 128 128 128-57.307 128-128C959.498 542.62 946.716 512.228 925.785 489.441zM759.749 796.501c-9.374 0-17.815 3.974-23.747 10.322-0.033-0.066-0.068-0.131-0.101-0.198-64.487 55.691-148.511 89.374-240.403 89.374-26.357 0-52.061-2.784-76.848-8.051 8.228-16.903 12.848-35.885 12.848-55.948 0-70.693-57.307-128-128-128s-128 57.307-128 128 57.307 128 128 128c24.316 0 47.048-6.78 66.409-18.553 39.743 12.058 81.907 18.552 125.59 18.552 106.151 0 203.348-38.299 278.559-101.815 10.774-5.293 18.193-16.371 18.193-29.183C792.249 811.053 777.697 796.501 759.749 796.501z" fill="#ffffff"></path></g></g></svg>