<?xml version="1.0" standalone="no"?><!DOCTYPE svg PUBLIC "-//W3C//DTD SVG 1.1//EN" "http://www.w3.org/Graphics/SVG/1.1/DTD/svg11.dtd"><svg width="32" height="32" viewBox="0 0 32 32" version="1.1" xmlns="http://www.w3.org/2000/svg" xmlns:xlink="http://www.w3.org/1999/xlink"><defs><style type="text/css"><![CDATA[
@font-face { font-family: ifont; src: url(http://at.alicdn.com/t/font_1442373896_4754455.eot?#iefix) format(embedded-opentype), url(http://at.alicdn.com/t/font_1442373896_4754455.woff) format(woff), url(http://at.alicdn.com/t/font_1442373896_4754455.ttf) format(truetype), url(http://at.alicdn.com/t/font_1442373896_4754455.svg#ifont) format(svg); }

]]></style></defs><g class="transform-group"><g transform="scale(0.03125, 0.03125)"><path d="M613.985766 565.16178 413.662321 565.16178c-187.529047 0-340.104001 150.232606-340.104001 334.947562l0 19.706831c0 98.558713 150.098553 98.558713 340.104001 98.558713l200.323445 0c182.457542 0 340.081489 0 340.109118-98.558713l0-19.706831C954.095907 715.422016 801.490254 565.16178 613.985766 565.16178L613.985766 565.16178zM895.334595 921.68473c0 4.725628-7.179516 20.756743-99.56667 28.617781-58.745962 4.993734-128.814808 4.993734-179.969884 4.993734L411.821393 955.296245c-61.684898 0-131.60434 0-187.742918-4.993734-82.84994-7.370875-91.792613-22.467711-91.792613-28.617781l0-20.071128c0-151.263076 125.402081-274.321786 279.540647-274.321786l203.971531 0c154.138566 0 279.540647 123.05871 279.540647 274.321786l0 20.071128L895.334595 921.68473zM503.806387 13.302981c-148.901285 0-269.951245 119.325689-269.951245 266.020726s121.050983 266.050402 269.951245 266.050402c148.841933 0 269.950222-119.355365 269.950222-266.050402S652.700509 13.302981 503.806387 13.302981L503.806387 13.302981zM503.806387 482.322074c-114.576525 0-207.792557-91.427292-207.792557-203.807802 0-112.362091 93.216032-203.775057 207.792557-203.775057 114.574479 0 207.79051 91.413989 207.79051 203.775057C711.596897 390.894781 618.380866 482.322074 503.806387 482.322074L503.806387 482.322074z" fill="#ffffff"></path></g></g></svg>