<?xml version="1.0" standalone="no"?><!DOCTYPE svg PUBLIC "-//W3C//DTD SVG 1.1//EN" "http://www.w3.org/Graphics/SVG/1.1/DTD/svg11.dtd"><svg class="icon" width="200px" height="200.00px" viewBox="0 0 1024 1024" version="1.1" xmlns="http://www.w3.org/2000/svg"><path fill="#cccccc" d="M512.066259 2.515031c111.193603 85.720442 230.887426 145.393903 436.27419 145.393903l0 376.72506c0 179.664683-230.860437 496.849696-436.27419 496.849696-205.386764 0-436.407092-317.185013-436.407092-496.849696l0-376.72506C280.921983 147.908934 400.748836 88.235472 512.066259 2.515031L512.066259 2.515031zM512.058328 87.231609c-92.808628 71.464507-192.712861 121.216759-363.842275 121.216759l0 314.089511c0 149.785421 192.605925 414.229105 363.842275 414.229105 171.261932 0 363.734444-264.443683 363.734444-414.229105L875.792773 208.448368C704.556806 208.448368 604.768463 158.696116 512.058328 87.231609L512.058328 87.231609zM768.43644 361.707019l-28.164968-28.106896c-7.052243-7.030241-20.144294-5.346903-29.239184 3.757452L450.310114 598.274562 312.204325 466.741341c-9.450616-9.006374-22.684652-10.454352-29.541443-3.246311l-27.41885 28.834978c-6.865873 7.212646-4.751722 20.357654 4.698766 29.355073L433.167816 686.676705c3.499579 3.330734 7.514393 5.622172 11.538161 6.830313 7.26509 2.97603 17.177346 0.470721 24.51394-6.865361l295.495142-295.716944C773.809821 381.815881 775.479729 368.73726 768.43644 361.707019z" /></svg>